<svg width="152" height="161" viewBox="0 0 152 161" fill="none" xmlns="http://www.w3.org/2000/svg">
<path d="M66.9999 115.5C39.3759 78.9025 118 36 148 30.5004C150.19 30.099 154.5 32.4004 146.5 36.0004C138.5 39.6004 120 56.0005 120 56.0005C120 56.0005 107.7 66.3004 106.5 77.5005C105.3 88.7005 121 93.5005 129 94.5005C135.833 93.6671 149.3 94.3005 148.5 103.5C146.9 115.9 132 108 132 108C132 108 126.935 105.323 124 103.5C115.538 98.2469 109.234 106.235 99.9999 102.5C94.4236 100.245 93.3198 91.9799 87.4999 93.5004C80.605 95.3019 82.0272 104.817 84.4999 111.5C87.3752 119.272 95.9999 122.7 102 123.5C108 124.3 119.167 121.834 124 120.5C129 120 138.3 121.4 135.5 131C128 140.5 121.474 128.813 115 131C110.176 132.631 107.363 132.922 107 138C106.5 145 107.014 154.304 100.5 153.5C95.1153 152.837 89.4999 147.9 93.4999 141.5C97.4999 135.1 81.9999 129.5 81.9999 129.5C81.9999 129.5 71.8273 121.896 66.9999 115.5Z" fill="#A1D99B"/>
<path d="M54.5001 121C28.5001 100.6 8.33339 101.167 1.50005 104C-0.999947 108 -0.799946 121.4 20.0001 143C40.8001 164.6 59.6667 162.333 66.5001 158.5C73.3334 154.5 80.5001 141.4 54.5001 121Z" fill="#A1D99B"/>
<path d="M118 12C146.5 6.5 149.667 17 150.5 22C110 22 94.9475 61.6568 53.5 68.5C39.4033 70.8274 26 76.5 17 71C17.8 43.8 57.6667 24.3333 77.5 18C78 12.8333 81.6 2.09998 92 0.499977C105 -1.50002 109.5 2.99998 118 12Z" fill="#A1D99B"/>
<circle cx="97" cy="16" r="10" fill="#E4E9ED"/>
</svg>
